<svg width="51" height="45" viewBox="0 0 51 45" fill="none" xmlns="http://www.w3.org/2000/svg">
<path d="M36.9103 45H13.5748C3.28388 45 0.156921 41.9077 0.156921 31.7308V13.2692C0.156921 3.09231 3.28388 0 13.5748 0H36.9103C47.2013 0 50.3282 3.09231 50.3282 13.2692V31.7308C50.3282 41.9077 47.2013 45 36.9103 45ZM13.5748 3.46154C5.22072 3.46154 3.65724 5.03077 3.65724 13.2692V31.7308C3.65724 39.9692 5.22072 41.5385 13.5748 41.5385H36.9103C45.2644 41.5385 46.8279 39.9692 46.8279 31.7308V13.2692C46.8279 5.03077 45.2644 3.46154 36.9103 3.46154H13.5748Z" fill="#292D32"/>
<path d="M41.5775 15H29.9098C28.953 15 28.1596 14.2154 28.1596 13.2692C28.1596 12.3231 28.953 11.5385 29.9098 11.5385H41.5775C42.5343 11.5385 43.3277 12.3231 43.3277 13.2692C43.3277 14.2154 42.5343 15 41.5775 15Z" fill="#292D32"/>
<path d="M41.5774 24.2308H32.2432C31.2865 24.2308 30.4931 23.4462 30.4931 22.5001C30.4931 21.5539 31.2865 20.7693 32.2432 20.7693H41.5774C42.5342 20.7693 43.3276 21.5539 43.3276 22.5001C43.3276 23.4462 42.5342 24.2308 41.5774 24.2308Z" fill="#292D32"/>
<path d="M41.5774 33.4615H36.9103C35.9535 33.4615 35.1601 32.6769 35.1601 31.7308C35.1601 30.7846 35.9535 30 36.9103 30H41.5774C42.5341 30 43.3275 30.7846 43.3275 31.7308C43.3275 32.6769 42.5341 33.4615 41.5774 33.4615Z" fill="#292D32"/>
<path d="M17.0762 22.5921C13.7859 22.5921 11.1024 19.9382 11.1024 16.6844C11.1024 13.4306 13.7859 10.7767 17.0762 10.7767C20.3665 10.7767 23.0501 13.4306 23.0501 16.6844C23.0501 19.9382 20.3665 22.5921 17.0762 22.5921ZM17.0762 14.2383C15.7228 14.2383 14.6027 15.346 14.6027 16.6844C14.6027 18.0228 15.7228 19.1305 17.0762 19.1305C18.4297 19.1305 19.5498 18.0228 19.5498 16.6844C19.5498 15.346 18.4297 14.2383 17.0762 14.2383Z" fill="#292D32"/>
<path d="M25.2424 34.2227C24.3556 34.2227 23.5856 33.5535 23.4922 32.6535C23.2355 30.1612 21.2054 28.1535 18.6618 27.9227C17.5884 27.8304 16.5149 27.8304 15.4415 27.9227C12.8979 28.1535 10.8678 30.1381 10.6111 32.6535C10.5177 33.5996 9.65431 34.315 8.69756 34.1996C7.7408 34.1073 7.04074 33.2535 7.13408 32.3073C7.55412 28.1535 10.8911 24.8535 15.1148 24.4842C16.3983 24.3689 17.7051 24.3689 18.9885 24.4842C23.1889 24.8766 26.5492 28.1765 26.9692 32.3073C27.0626 33.2535 26.3625 34.1073 25.4057 34.1996C25.3591 34.2227 25.2891 34.2227 25.2424 34.2227Z" fill="#292D32"/>
</svg>
